<?xml version="1.0" encoding="UTF-8"?>
<!DOCTYPE svg PUBLIC "-//W3C//DTD SVG 1.1//EN" "http://www.w3.org/Graphics/SVG/1.1/DTD/svg11.dtd">
<svg xmlns="http://www.w3.org/2000/svg" xmlns:xlink="http://www.w3.org/1999/xlink" width="628px" height="613px" version="1.1" content="%3Cmxfile%20userAgent%3D%22Mozilla%2F5.0%20(X11%3B%20Linux%20x86_64)%20AppleWebKit%2F537.36%20(KHTML%2C%20like%20Gecko)%20Chrome%2F46.0.2490.80%20Safari%2F537.36%22%20type%3D%22device%22%3E%3Cdiagram%3E7Vxbc5u6Fv41PDYDBnx5jN327Jl9OjszmTPd55HYik1NUAZwE%2FvXV4K1MJIAi6vdTvxiEOi21reukjDs1cv7fyLvdfeNbkhgTMzNu2F%2FNiYTa2ZO2R8vOWYljuVmBdvI38BL54JH%2F0Sg0ITSg78hsfBiQmmQ%2BK9i4ZqGIVknQpkXRfRNfO2ZBmKvr94WezwXPK69QC397m%2BSXVY6n8C0ePlfxN%2FusGdrusiePHnr%2FTaihxD6Myb2c%2FrLHr942FY6UfsLI2JEKWuGX728r0jACYk0yqjxteJpPsiIhDCQ%2BgrzrMJPLzjAPO%2F3b%2F7puP7hcV554XG9y16JkyOSQu0E%2Bv1JooQgx%2FPZMEgQ%2BkKS6MhegaefZrNZVgfgMANqvZ1pa8HYzV2BrlMo84Cd27zp8yzZBUy0fNILddbKHEm4ueeoYXfrwItjf23YS%2FLuJ%2F%2ByEguu%2F8%2BuzTuX34VsDPyRiTfnZ5XkiukhWkN%2FMKTEi7YE3wIBIRsBmSpNCzRzS0iGZREJvMT%2FKeK5jI7QwwP12YALLFtAQyjBEiuy6UCtIuaUhrAmNPQJZRxbyqigtJTyNZ%2B3Fqsty1Z4%2FXjchp6xco15yhdj5RiLRRL47IaNY2W9qGBgHHiE25CG7G%2BZCjThvSAYVGDMOPdjNpkEoQSV07KvPh81ACYH21NA1%2FusCF5I2%2BwKL8RSEV8ogRfxhXwz7%2BZzG%2FQdsA7J2xVbuVxju659Zxd%2FMNYLCGFU9PiI8bVX%2FkJc1y9C79xvPXblCnhfDXZJappXmAtDYhfZLKXqOGX6%2FBwzDncVG0cRm4cok5TNnnLhWSz57Rz40l1YepOVRvKgi33zbuJOAOvAFzBYXZFvSey2TGj4AtQH4zwIeHPjWKGjJql9rOS5FrtQVRXV1wLeuxXzOOfWoyi3yNjm9hGHhC3JlnYo7SepmssV7FlDZda4ggO0KNV%2BrfAN4lXpEPx9UPDOnFoGlmVEYv%2FkPaWlHORAX%2FaKuzTczxzM9tIL%2FG3IBYPhmUSsgDvFPosj7uHBi7%2FZ8CaWgfdEgmUeHaxoQNn7rD%2BMD0qFI5dP2dfOQx8YoRBRVNjzhTWHurkr1oswgMrIGwVr0rOmau3G13hTNZ7cn6OpJP1io%2BZqrKkUnYct966pMBbEIVvZtKs1lVwBHEztqTSu4IqOXXdNhTMo%2BmBe5J3D3ZtVUSiYvaioiSNpE7jtKAWgknIVBc5dvyoKw5YCC%2F%2Frr09PPLlCYxZxdss6aGkkbe2Tu7qmO5WiPEDiSPppIfs%2FKAmN9ZPsXKOMXsm5RlbUWax%2Bkmsi%2F2wkQ4GBzryEg4qn2Sa9htwrzPL7MT4d9v6bF%2FqkAvobL97lIWIvRHDEDKNjQ8w3RopxqnJapAFjkP3usaluosPWJz%2FGooqLvhhSpQQaw1EF0H2ZKsZqYtybr3TDimOfZQKuRiDXBWs2SmZaJdBnkpB9lo4vmz%2FY%2FTiJ6J6gfYbUyTNLikhF%2BqafsifPQWqKdqyMsIfL3ok9nUgyij5VkdiliqoHYlv5gAdJdaTPcnOdPtKjX5nxLoYTqF9vJZywTMnXdmQrq22vF5AekJ3w3uOJmZRv7j3NgFDqDVtpCFqOLQVa%2FObBS5iEc5FmHDWdPwlwM9QIVV7d7eNNChY1AApz7g%2BgaoZfNzQBWyJArjxIyRRijug7Z5avZskvPJDIZ%2BPnRgnz%2FIWsvxZ2EV%2Btci%2FniNN0bDEpduXwx24Pbzk9ownvodYWGLf1Mxql2lEDc5mirNWiwnpRB2VZBjj0%2FBsAzp2yLq8IODmTlXthnVcu7KHyga7UkaQeL1dwIRocdVUVvd3GToEI%2BzpsN0SzgFwYjDZyXWkfR1ksWYfbBhBV2dcWoq5p300Lv5kU7jmusPFAWrkYCr9Ts2aRvxXU1MURVGBtVGxuuiXTzm5Vw10THLX2QZuqVWbGF7jI%2F6FVdVEpC7QYFV2u4JrX0Krqii5IbS9qtR63XRQoa9sEMb0ORFX2%2FXYQdWdX2B2F8YGmHS%2BNl85B0Xw%2BL1mH7hAT3fLac5WKuWHI5UkBXa0oV%2Bh9ZdhullzSj9fF6Eg78NY2zr%2Bd6c1B1XABsTPIXHnj%2FvggU3dOXxdkutb1A2TamGGW58ogU7OQXVw3Kbuo7bndmpW8iIjBrWQLZuLWt%2BF3N4iLhow8ersbLAwIu6waOmoO8%2FvxFHrrExGXsOPzrlK2o9T8Nv6OhzzdO8bStaPuG%2F9nH5HsqECQ0cZ8Y3v54fTA2s%2FW%2BAsUY7NPc8HGyjaW9tsIa%2F0LMfkzLsHUDI0WkEr2J%2FdOGOeaSOK7sIe1CdV%2BiXhSRcsvQT62Olp1pSUlRRO2XlKaSg315qrIRxMgt1ztqtSfZejsqkBz4omo03FLE4rb2iRB5QcKL6m033z7jhTMM%2B9CURMTE2Sh7%2B07qKJq1UThLBqNkh3d0tALvpxLCwLPA5HmG3TQHShKP5rCi9KvLdbaqrPt4a3ypH%2F%2Fx5zLjkcgCW9WWco6rrWyVNTuUNtLLh7kUiqI6rWztnTUnPw1hBPEQUAbmOsrCGfb80oVK3LoyXARrPN40nXhNo5NCfVu3rG5fVl1MeeBETksZVeOzJGPMl2qILtCzSuIp6u6p3nUmHmQzIC8nRgJVwAj0kJMDMxANDttJ1bF%2B3%2FxIWRhLj81v84OPqTLTyMEcO5CpISF0x4jgMOD8lWRrUn3zE8eIYiVdlWNSgOdxObgBhAxWVThyJ3xDWDJaTgWQpGEZYVOEEK9xUkmL68s3vmzgiXXFc8xlqFxsKMOaNwqRFLJxMnf%2BsBs3Sv94Z02oygw8QjbmAkoC7dj3mwYVfY5n5zHt%2BKbTaXN9a2%2FFzWVHCDd70U1ds2m8teA4Fss1SOTKvQcRVmwneoqqVA9ICLobvnDZTIQW3%2BYRQbiUN9lkf3xprlPCbc94LCfvJLGdzdUZdleIepG%2Bh8wHEgdWuI3NHrAYb8b6MsSJR0VInrXH%2FpwQH0o4Uqjgpt5dC2ByG7Pn2TNXj9%2F5Nb%2B8gs%3D%3C%2Fdiagram%3E%3C%2Fmxfile%3E" style="background-color: rgb(255, 255, 255);"><defs><clipPath id="mx-clip-181-381-180-20-0"><rect x="181" y="381" width="180" height="20"/></clipPath><clipPath id="mx-clip-168-216-207-20-0"><rect x="168" y="216" width="207" height="20"/></clipPath><clipPath id="mx-clip-256-11-180-20-0"><rect x="256" y="11" width="180" height="20"/></clipPath></defs><g transform="translate(0.5,0.5)"><rect x="31" y="60" width="120" height="60" fill="#ffffff" stroke="#000000" pointer-events="none"/><g fill="#000000" font-family="Helvetica" text-anchor="middle" font-size="12px"><text x="90.75" y="93.75">Akwizycja danych</text></g><path d="M 151 90 L 174.63 90" fill="none" stroke="#000000" stroke-miterlimit="10" pointer-events="none"/><path d="M 179.88 90 L 172.88 93.5 L 174.63 90 L 172.88 86.5 Z" fill="#000000" stroke="#000000" stroke-miterlimit="10" pointer-events="none"/><path d="M 511 135 L 588 134.11 Q 598 134 598 144 L 598 181 Q 598 191 588 191 L 28 191 Q 18 191 18 201 L 18 254 Q 18 264 20.44 264 L 22.88 264" fill="none" stroke="#000000" stroke-miterlimit="10" pointer-events="none"/><path d="M 29.88 264 L 22.88 267.5 L 22.88 260.5 Z" fill="#000000" stroke="#000000" stroke-miterlimit="10" pointer-events="none"/><g fill="#000000" font-family="Helvetica" text-anchor="middle" font-size="11px"><rect fill="#ffffff" stroke="none" x="517" y="115" width="83" height="14" stroke-width="0"/><text x="557.85" y="124.96">Sygnał pętli 0,1m</text></g><path d="M 511 90 L 609.88 90" fill="none" stroke="#000000" stroke-miterlimit="10" pointer-events="none"/><path d="M 616.88 90 L 609.88 93.5 L 609.88 86.5 Z" fill="#000000" stroke="#000000" stroke-miterlimit="10" pointer-events="none"/><g fill="#000000" font-family="Helvetica" text-anchor="middle" font-size="11px"><rect fill="#ffffff" stroke="none" x="555" y="75" width="47" height="14" stroke-width="0"/><text x="578" y="84.5">Prędkość</text></g><path d="M 511 264 L 588 264 Q 598 264 598 274 L 598 341 Q 598 351 588 351 L 28 351 Q 18 351 18 361 L 18 421 Q 18 431 21.82 431 L 25.63 431" fill="none" stroke="#000000" stroke-miterlimit="10" pointer-events="none"/><path d="M 30.88 431 L 23.88 434.5 L 25.63 431 L 23.88 427.5 Z" fill="#000000" stroke="#000000" stroke-miterlimit="10" pointer-events="none"/><g fill="#000000" font-family="Helvetica" text-anchor="middle" font-size="12px"><rect fill="#ffffff" stroke="none" x="521" y="245" width="57" height="15" stroke-width="0"/><text x="548.5" y="255.5">Sygnał Ku</text></g><path d="M 511 292 L 578 292 Q 588 292 588 302 L 588 331 Q 588 341 578 341 L 18 341 Q 8 341 8 351 L 8 481 Q 8 491 16.82 491 L 25.63 491" fill="none" stroke="#000000" stroke-miterlimit="10" pointer-events="none"/><path d="M 30.88 491 L 23.88 494.5 L 25.63 491 L 23.88 487.5 Z" fill="#000000" stroke="#000000" stroke-miterlimit="10" pointer-events="none"/><g fill="#000000" font-family="Helvetica" text-anchor="middle" font-size="12px"><rect fill="#ffffff" stroke="none" x="520" y="275" width="58" height="15" stroke-width="0"/><text x="548.5" y="285.5">Parametry</text></g><path d="M 512 491 L 611.63 491" fill="none" stroke="#000000" stroke-miterlimit="10" pointer-events="none"/><path d="M 616.88 491 L 609.88 494.5 L 611.63 491 L 609.88 487.5 Z" fill="#000000" stroke="#000000" stroke-miterlimit="10" pointer-events="none"/><g fill="#000000" font-family="Helvetica" text-anchor="middle" font-size="11px"><rect fill="#ffffff" stroke="none" x="543" y="475" width="51" height="14" stroke-width="0"/><text x="568" y="484.5">Liczba osi</text></g><rect x="32" y="371" width="480" height="240" fill="#ffffff" stroke="#000000" pointer-events="none"/><rect x="61" y="416" width="120" height="60" fill="#ffffff" stroke="#000000" stroke-dasharray="3 3" pointer-events="none"/><g fill="#000000" font-family="Helvetica" text-anchor="middle" font-size="12px"><text x="120.75" y="449.75">Wyszukiwanie osi</text></g><rect x="294" y="471" width="120" height="60" fill="#ffffff" stroke="#000000" stroke-dasharray="3 3" pointer-events="none"/><g fill="#000000" font-family="Helvetica" text-anchor="middle" font-size="12px"><text x="353.75" y="497.75">Wyszukiwanie</text><text x="353.75" y="511.75">drugiej osi</text></g><rect x="294" y="539" width="120" height="60" fill="#ffffff" stroke="#000000" stroke-dasharray="3 3" pointer-events="none"/><g fill="#000000" font-family="Helvetica" text-anchor="middle" font-size="12px"><text x="353.75" y="565.75">Wyszukiwanie</text><text x="353.75" y="579.75"> podniesionej osi</text></g><g fill="#000000" font-family="Helvetica" clip-path="url(#mx-clip-181-381-180-20-0)" text-anchor="middle" font-size="12px"><text x="271" y="395">Detekcja osi</text></g><path d="M 32 431 L 40 431 Q 48 431 51.32 431 L 54.63 431" fill="none" stroke="#000000" stroke-miterlimit="10" stroke-dasharray="3 3" pointer-events="none"/><path d="M 59.88 431 L 52.88 434.5 L 54.63 431 L 52.88 427.5 Z" fill="#000000" stroke="#000000" stroke-miterlimit="10" pointer-events="none"/><path d="M 32 491 L 40 491 Q 48 491 48 481 L 48 471 Q 48 461 51.32 461 L 54.63 461" fill="none" stroke="#000000" stroke-miterlimit="10" stroke-dasharray="1 4" pointer-events="none"/><path d="M 59.88 461 L 52.88 464.5 L 54.63 461 L 52.88 457.5 Z" fill="#000000" stroke="#000000" stroke-miterlimit="10" pointer-events="none"/><path d="M 181 431 L 258 431" fill="none" stroke="#000000" stroke-miterlimit="10" stroke-dasharray="3 3" pointer-events="none"/><g fill="#000000" font-family="Helvetica" text-anchor="middle" font-size="11px"><rect fill="#ffffff" stroke="none" x="193" y="415" width="51" height="14" stroke-width="0"/><text x="218" y="424.5">Liczba osi</text></g><path d="M 181 461 L 248 461 Q 258 461 258 471 L 258 506 Q 258 516 268 516 L 287.63 516" fill="none" stroke="#000000" stroke-miterlimit="10" stroke-dasharray="1 4" pointer-events="none"/><path d="M 292.88 516 L 285.88 519.5 L 287.63 516 L 285.88 512.5 Z" fill="#000000" stroke="#000000" stroke-miterlimit="10" pointer-events="none"/><g fill="#000000" font-family="Helvetica" text-anchor="middle" font-size="11px"><rect fill="#ffffff" stroke="none" x="193" y="445" width="51" height="14" stroke-width="0"/><text x="218" y="454.5">Parametry</text></g><path d="M 258 511 L 258 574 Q 258 584 268 584 L 287.63 584" fill="none" stroke="#000000" stroke-miterlimit="10" stroke-dasharray="1 4" pointer-events="none"/><path d="M 292.88 584 L 285.88 587.5 L 287.63 584 L 285.88 580.5 Z" fill="#000000" stroke="#000000" stroke-miterlimit="10" pointer-events="none"/><path d="M 258 431 L 263 431 Q 268 431 268 441 L 268 476 Q 268 486 277.82 486 L 287.63 486" fill="none" stroke="#000000" stroke-miterlimit="10" stroke-dasharray="3 3" pointer-events="none"/><path d="M 292.88 486 L 285.88 489.5 L 287.63 486 L 285.88 482.5 Z" fill="#000000" stroke="#000000" stroke-miterlimit="10" pointer-events="none"/><g fill="#000000" font-family="Helvetica" text-anchor="middle" font-size="11px"><rect fill="#ffffff" stroke="none" x="275" y="465" width="8" height="14" stroke-width="0"/><text x="278" y="474.5">1</text></g><path d="M 268 481 L 268 544 Q 268 554 277.82 554 L 287.63 554" fill="none" stroke="#000000" stroke-miterlimit="10" stroke-dasharray="3 3" pointer-events="none"/><path d="M 292.88 554 L 285.88 557.5 L 287.63 554 L 285.88 550.5 Z" fill="#000000" stroke="#000000" stroke-miterlimit="10" pointer-events="none"/><g fill="#000000" font-family="Helvetica" text-anchor="middle" font-size="11px"><rect fill="#ffffff" stroke="none" x="275" y="535" width="8" height="14" stroke-width="0"/><text x="278" y="544.5">4</text></g><path d="M 268 431 L 438 431 Q 448 431 448 441 L 448 481 Q 448 491 453 491 L 458 491" fill="none" stroke="#000000" stroke-miterlimit="10" stroke-dasharray="3 3" pointer-events="none"/><path d="M 414 501 L 438 501 Q 448 501 448 496 L 448 493.5 Q 448 491 453 491 L 458 491" fill="none" stroke="#000000" stroke-miterlimit="10" stroke-dasharray="3 3" pointer-events="none"/><path d="M 414 569 L 438 569 Q 448 569 448 559 L 448 501 Q 448 491 453 491 L 458 491" fill="none" stroke="#000000" stroke-miterlimit="10" stroke-dasharray="3 3" pointer-events="none"/><path d="M 458 491 L 505.63 491" fill="none" stroke="#000000" stroke-miterlimit="10" stroke-dasharray="3 3" pointer-events="none"/><path d="M 510.88 491 L 503.88 494.5 L 505.63 491 L 503.88 487.5 Z" fill="#000000" stroke="#000000" stroke-miterlimit="10" pointer-events="none"/><rect x="31" y="206" width="480" height="115" fill="#ffffff" stroke="#000000" pointer-events="none"/><rect x="61" y="241" width="120" height="60" fill="#ffffff" stroke="#000000" stroke-dasharray="3 3" pointer-events="none"/><g fill="#000000" font-family="Helvetica" text-anchor="middle" font-size="12px"><text x="120.75" y="267.75">Wyznaczenie</text><text x="120.75" y="281.75">sygnału M</text></g><rect x="214" y="241" width="120" height="60" fill="#ffffff" stroke="#000000" stroke-dasharray="3 3" pointer-events="none"/><g fill="#000000" font-family="Helvetica" text-anchor="middle" font-size="12px"><text x="273.75" y="267.75">Określenie wartości </text><text x="273.75" y="281.75">parametrów</text></g><rect x="361" y="241" width="120" height="60" fill="#ffffff" stroke="#000000" stroke-dasharray="3 3" pointer-events="none"/><g fill="#000000" font-family="Helvetica" text-anchor="middle" font-size="12px"><text x="420.75" y="267.75">Wyznaczenie</text><text x="420.75" y="281.75">sygnału Ku</text></g><path d="M 481 271 L 489.5 271 Q 498 271 498 267.5 L 498 265.75 Q 498 264 501.32 264 L 504.63 264" fill="none" stroke="#000000" stroke-miterlimit="10" stroke-dasharray="3 3" pointer-events="none"/><path d="M 509.88 264 L 502.88 267.5 L 504.63 264 L 502.88 260.5 Z" fill="#000000" stroke="#000000" stroke-miterlimit="10" pointer-events="none"/><g fill="#000000" font-family="Helvetica" clip-path="url(#mx-clip-168-216-207-20-0)" text-anchor="middle" font-size="12px"><text x="271.5" y="230">Przygotowanie sygnału i parametrów</text></g><path d="M 181 271 L 207.63 271" fill="none" stroke="#000000" stroke-miterlimit="10" stroke-dasharray="3 3" pointer-events="none"/><path d="M 212.88 271 L 205.88 274.5 L 207.63 271 L 205.88 267.5 Z" fill="#000000" stroke="#000000" stroke-miterlimit="10" pointer-events="none"/><path d="M 31 264 L 39.5 264 Q 48 264 48 267.5 L 48 269.25 Q 48 271 51.32 271 L 54.63 271" fill="none" stroke="#000000" stroke-miterlimit="10" stroke-dasharray="3 3" pointer-events="none"/><path d="M 59.88 271 L 52.88 274.5 L 54.63 271 L 52.88 267.5 Z" fill="#000000" stroke="#000000" stroke-miterlimit="10" pointer-events="none"/><path d="M 334 271 L 354.63 271" fill="none" stroke="#000000" stroke-miterlimit="10" stroke-dasharray="3 3" pointer-events="none"/><path d="M 359.88 271 L 352.88 274.5 L 354.63 271 L 352.88 267.5 Z" fill="#000000" stroke="#000000" stroke-miterlimit="10" pointer-events="none"/><path d="M 274 301 L 274 306 Q 274 311 284 311 L 378 311 Q 388 311 398 311 L 488 311 Q 498 311 498 301.5 L 498 296.75 Q 498 292 501.32 292 L 504.63 292" fill="none" stroke="#000000" stroke-miterlimit="10" stroke-dasharray="3 3" pointer-events="none"/><path d="M 509.88 292 L 502.88 295.5 L 504.63 292 L 502.88 288.5 Z" fill="#000000" stroke="#000000" stroke-miterlimit="10" pointer-events="none"/><rect x="181" y="1" width="330" height="178" fill="#ffffff" stroke="#000000" pointer-events="none"/><rect x="211" y="111" width="120" height="60" fill="#ffffff" stroke="#000000" stroke-dasharray="3 3" pointer-events="none"/><g fill="#000000" font-family="Helvetica" text-anchor="middle" font-size="12px"><text x="270.75" y="144.75">Usunięcie offsetu</text></g><rect x="364" y="111" width="120" height="60" fill="#ffffff" stroke="#000000" stroke-dasharray="3 3" pointer-events="none"/><g fill="#000000" font-family="Helvetica" text-anchor="middle" font-size="12px"><text x="423.75" y="144.75">Wyznaczenie okna</text></g><path d="M 331 141 L 357.63 141" fill="none" stroke="#000000" stroke-miterlimit="10" stroke-dasharray="3 3" pointer-events="none"/><path d="M 362.88 141 L 355.88 144.5 L 357.63 141 L 355.88 137.5 Z" fill="#000000" stroke="#000000" stroke-miterlimit="10" pointer-events="none"/><g fill="#000000" font-family="Helvetica" clip-path="url(#mx-clip-256-11-180-20-0)" text-anchor="middle" font-size="12px"><text x="346" y="25">Przetwarzanie wstępne</text></g><rect x="212" y="41" width="120" height="60" fill="#ffffff" stroke="#000000" stroke-dasharray="3 3" pointer-events="none"/><g fill="#000000" font-family="Helvetica" text-anchor="middle" font-size="12px"><text x="271.75" y="67.75">Wyznaczenie </text><text x="271.75" y="81.75">prędkości pojazdu</text></g><path d="M 181 90 L 189.5 90 Q 198 90 198 80.5 L 198 75.75 Q 198 71 201.82 71 L 205.63 71" fill="none" stroke="#000000" stroke-miterlimit="10" stroke-dasharray="3 3" pointer-events="none"/><path d="M 210.88 71 L 203.88 74.5 L 205.63 71 L 203.88 67.5 Z" fill="#000000" stroke="#000000" stroke-miterlimit="10" pointer-events="none"/><path d="M 332 71 L 488 71 Q 498 71 498 80.5 L 498 85.25 Q 498 90 501.32 90 L 504.63 90" fill="none" stroke="#000000" stroke-miterlimit="10" stroke-dasharray="3 3" pointer-events="none"/><path d="M 509.88 90 L 502.88 93.5 L 504.63 90 L 502.88 86.5 Z" fill="#000000" stroke="#000000" stroke-miterlimit="10" pointer-events="none"/><path d="M 181 90 L 189.5 90 Q 198 90 198 100 L 198 131 Q 198 141 201.32 141 L 204.63 141" fill="none" stroke="#000000" stroke-miterlimit="10" stroke-dasharray="3 3" pointer-events="none"/><path d="M 209.88 141 L 202.88 144.5 L 204.63 141 L 202.88 137.5 Z" fill="#000000" stroke="#000000" stroke-miterlimit="10" pointer-events="none"/><path d="M 484 141 L 491 141 Q 498 141 498 138 L 498 136.5 Q 498 135 501.32 135 L 504.63 135" fill="none" stroke="#000000" stroke-miterlimit="10" stroke-dasharray="3 3" pointer-events="none"/><path d="M 509.88 135 L 502.88 138.5 L 504.63 135 L 502.88 131.5 Z" fill="#000000" stroke="#000000" stroke-miterlimit="10" pointer-events="none"/></g></svg>