<?xml version="1.0" encoding="UTF-8"?>
<!DOCTYPE svg PUBLIC "-//W3C//DTD SVG 1.1//EN" "http://www.w3.org/Graphics/SVG/1.1/DTD/svg11.dtd">
<svg xmlns="http://www.w3.org/2000/svg" xmlns:xlink="http://www.w3.org/1999/xlink" width="554px" height="264px" version="1.1" content="%3Cmxfile%20userAgent%3D%22Mozilla%2F5.0%20(X11%3B%20Linux%20x86_64)%20AppleWebKit%2F537.36%20(KHTML%2C%20like%20Gecko)%20Chrome%2F46.0.2490.80%20Safari%2F537.36%22%20type%3D%22device%22%3E%3Cdiagram%3E3Vpbb6s4EP41PDYimFz6mLTn7JH2oiN1pd0%2BrVxwiLcER4a2SX%2F9GeMZrklOG2A3bR4SPNiDPZdvPps47Gaz%2B0Xz7fp3FYrY8dxw57Bbx%2FPmcxe%2BjWBvBf54YgWRlqEVjUvBnXwVKMRx0ZMMRVrrmCkVZ3JbFwYqSUSQ1WRca%2FVS77ZScf2pWx7RE0vBXcDjtvQvGWZrlI6n1%2BWNb0JGa3r0dAJic%2BeBB4%2BRVk8JPtDx2Cr%2F2NsbTsrylbIvYEStFKgxV5vdjYiNIclI1hxfj9wtZqlFghM5PQCd8MzjJ1yoFaTZnlYuQjAENhOVwM8yX40wKsbQWmebGC5duEwzrrOFMXfZOZd9lfBY20ckIfUIYp6mMrBC7GI0wuT1%2Fm%2FTf%2BReT0hwnwuK5neh5UZkQpPenczMmFwBXFe6Q6vZ2y7TrO2o5VCUqicdYC%2BG3oYlRQK7TQu3QewLBQ%2FRe%2BiiRcwz%2BVxXzzEKo6JfMfS7kvBgz8WEYdcY%2BJgvM2ySBjsrHFR1cFOPx2p6xpRQpMgupaUILirLKUV5%2FByOJR%2BNc2nBhHHhjq5dioYhYmOYOPAm9TiYDua%2BfP41732DpsMWecN1R7Tm0ptpptVjgYewhGW65ltzc7OLTBkYrWL1EqzBZ6OQZ7zmbWPpyPisZvVnoTOBaz9m97aRaQCiHRnLx%2BZLBbFdlK0rYE39DrmlZtET5vP8C4fSC4JRclMVRr0cPXrPH5%2FwDkOCNX39ViD1Z3UgZbSI%2FjPxQFX%2Bkz%2B2ognyBGy31CKVr%2FwhlxqXbM0M8jlNls7k1jiJLXkso8SECbjFOG9p8kwCvVngjY0MQ6NiGfMHES8LznKjYmWcXbKWE5mK5AsnU5CPWjjYPDmawlfuiDIJDX2FedS1oNaVjlErKVCrVQqh2NFxs8%2BFAWXemwGECMNhACspcK9cioompS5xq65kqgCXATBg3gqlP6T4LBiQ58kpDBgjGyHW2gsE0JaTMACd2S8E4HIrfrs3NMqbxsZRzo3nLAyXwqmcS6ZEIFOpwGnDEirWYJ%2B0ugqhmiPmVfkUbfa78CnaPp8Jne9n%2Fe9GyZ7Q%2BUz4pEOQKoXqCp9v5rqooxnktFcwjasPsmcoyP%2F%2FsGfw23a8BL5w5tkI0rb%2BST3Ml5tR1AGr21Gcn1geUaIW%2Bqr0itV49kHHZ67NNiaPpos7mk9mCPm9FuerGR4fkVY2CENvn1H9qhIpgk44lefYPyZ1BoUqv3EmeACqqPL2jVTsMg%2BKz0SqQ1uPI9vS3msnPbxiyUUcKb3PNkASIY13puSFwDMeg38ldFQpfHcIzq1WgTBheCI4Q6kBF3JCeQuWMlp7oY9%2BfSs%2FpsX%2FrLgS7exk6EvfjJfMsthdH6KZPVbjI97qekTdOHV94xH1e6u610C%2Fvqs6a1f1z3PqZpPh1I67cT7W06Eb2pReYg1Q0SnQK277TQavD5ygs8DUYg%2FuuW0k%2BBi77%2F9u%2B01vOitmvTNg9xF40s%2FfAvVEk6BZvqq3sVv%2B%2BYF9%2BQE%3D%3C%2Fdiagram%3E%3C%2Fmxfile%3E" style="background-color: rgb(255, 255, 255);"><defs/><g transform="translate(0.5,0.5)"><path d="M 82 42 L 105.63 42" fill="none" stroke="#000000" stroke-miterlimit="10" pointer-events="none"/><path d="M 110.88 42 L 103.88 45.5 L 105.63 42 L 103.88 38.5 Z" fill="#000000" stroke="#000000" stroke-miterlimit="10" pointer-events="none"/><path d="M 193 42 L 225.63 42" fill="none" stroke="#000000" stroke-miterlimit="10" pointer-events="none"/><path d="M 230.88 42 L 223.88 45.5 L 225.63 42 L 223.88 38.5 Z" fill="#000000" stroke="#000000" stroke-miterlimit="10" pointer-events="none"/><path d="M 121.61 25.4 C 122.78 23.27 124.67 22.02 126.67 22.08 L 196.53 22.08 C 198.13 22.05 199.65 22.42 200.65 23.08 C 201.64 23.73 201.99 24.59 201.6 25.4 L 182.36 58.6 C 181.19 60.73 179.3 61.98 177.3 61.92 L 106.42 61.92 C 105.01 61.8 103.77 61.36 102.99 60.73 C 102.22 60.1 102 59.32 102.37 58.6 Z" fill="#ffffff" stroke="#000000" stroke-width="2" stroke-miterlimit="10" pointer-events="none"/><g fill="#000000" font-family="Helvetica" text-anchor="middle" font-size="12px"><text x="151.75" y="45.75">H := 0.1</text></g><path d="M 419 42 L 465.63 42" fill="none" stroke="#000000" stroke-miterlimit="10" pointer-events="none"/><path d="M 470.88 42 L 463.88 45.5 L 465.63 42 L 463.88 38.5 Z" fill="#000000" stroke="#000000" stroke-miterlimit="10" pointer-events="none"/><g fill="#000000" font-family="Helvetica" text-anchor="middle" font-size="12px"><rect fill="#ffffff" stroke="none" x="432" y="26" width="22" height="15" stroke-width="0"/><text x="442.5" y="36.5">Tak</text></g><path d="M 376 82 L 376 105.63" fill="none" stroke="#000000" stroke-miterlimit="10" pointer-events="none"/><path d="M 376 110.88 L 372.5 103.88 L 376 105.63 L 379.5 103.88 Z" fill="#000000" stroke="#000000" stroke-miterlimit="10" pointer-events="none"/><g fill="#000000" font-family="Helvetica" text-anchor="middle" font-size="12px"><rect fill="#ffffff" stroke="none" x="383" y="86" width="21" height="15" stroke-width="0"/><text x="392.5" y="96.5">Nie</text></g><path d="M 375.5 2 L 419 42 L 375.5 82 L 332 42 Z" fill="#ffffff" stroke="#000000" stroke-width="2" stroke-miterlimit="10" pointer-events="none"/><g fill="#000000" font-family="Helvetica" text-anchor="middle" font-size="12px"><text x="375.25" y="45.75">Y &lt; 0.15</text></g><path d="M 313 42 L 325.63 42" fill="none" stroke="#000000" stroke-miterlimit="10" pointer-events="none"/><path d="M 330.88 42 L 323.88 45.5 L 325.63 42 L 323.88 38.5 Z" fill="#000000" stroke="#000000" stroke-miterlimit="10" pointer-events="none"/><path d="M 241.61 25.4 C 242.78 23.27 244.67 22.02 246.67 22.08 L 316.53 22.08 C 318.13 22.05 319.65 22.42 320.65 23.08 C 321.64 23.73 321.99 24.59 321.6 25.4 L 302.36 58.6 C 301.19 60.73 299.3 61.98 297.3 61.92 L 226.42 61.92 C 225.01 61.8 223.77 61.36 222.99 60.73 C 222.22 60.1 222 59.32 222.37 58.6 Z" fill="#ffffff" stroke="#000000" stroke-width="2" stroke-miterlimit="10" pointer-events="none"/><g fill="#000000" font-family="Helvetica" text-anchor="middle" font-size="12px"><text x="271.75" y="45.75">Y := Y - 0.1</text></g><path d="M 419 222 L 502 222 Q 512 222 512 212 L 512 68.37" fill="none" stroke="#000000" stroke-miterlimit="10" pointer-events="none"/><path d="M 512 63.12 L 515.5 70.12 L 512 68.37 L 508.5 70.12 Z" fill="#000000" stroke="#000000" stroke-miterlimit="10" pointer-events="none"/><g fill="#000000" font-family="Helvetica" text-anchor="middle" font-size="12px"><rect fill="#ffffff" stroke="none" x="423" y="206" width="21" height="15" stroke-width="0"/><text x="432.5" y="216.5">Nie</text></g><ellipse cx="512" cy="42" rx="40" ry="20" fill="#ffffff" stroke="#000000" stroke-width="2" pointer-events="none"/><g fill="#000000" font-family="Helvetica" text-anchor="middle" font-size="12px"><text x="511.75" y="45.75">Koniec</text></g><path d="M 375.85 162 L 375.77 175.63" fill="none" stroke="#000000" stroke-miterlimit="10" pointer-events="none"/><path d="M 375.74 180.88 L 372.28 173.86 L 375.77 175.63 L 379.28 173.9 Z" fill="#000000" stroke="#000000" stroke-miterlimit="10" pointer-events="none"/><rect x="351" y="87" width="50" height="100" rx="3" ry="3" fill="#ffffff" stroke="#000000" stroke-width="2" transform="rotate(90,376,137)" pointer-events="none"/><g fill="#000000" font-family="Helvetica" text-anchor="middle" font-size="12px"><text x="375.75" y="133.75">Algorytm</text><text x="375.75" y="147.75">detekcji osi</text></g><path d="M 332 222 L 282 222 Q 272 222 272 212 L 272 68.37" fill="none" stroke="#000000" stroke-miterlimit="10" pointer-events="none"/><path d="M 272 63.12 L 275.5 70.12 L 272 68.37 L 268.5 70.12 Z" fill="#000000" stroke="#000000" stroke-miterlimit="10" pointer-events="none"/><g fill="#000000" font-family="Helvetica" text-anchor="middle" font-size="12px"><rect fill="#ffffff" stroke="none" x="302" y="206" width="22" height="15" stroke-width="0"/><text x="312.5" y="216.5">Tak</text></g><path d="M 375.5 182 L 419 222 L 375.5 262 L 332 222 Z" fill="#ffffff" stroke="#000000" stroke-width="2" stroke-miterlimit="10" pointer-events="none"/><g fill="#000000" font-family="Helvetica" text-anchor="middle" font-size="12px"><text x="375.25" y="218.75">Liczba osi</text><text x="375.25" y="232.75">&lt; 2</text></g><ellipse cx="42" cy="42" rx="40" ry="20" fill="#ffffff" stroke="#000000" stroke-width="2" pointer-events="none"/><g fill="#000000" font-family="Helvetica" text-anchor="middle" font-size="12px"><text x="41.75" y="45.75">Start</text></g></g></svg>